<svg width="15" height="13" viewBox="0 0 15 13" fill="none" xmlns="http://www.w3.org/2000/svg">
<path d="M0 4.13712C1.53352e-05 3.30252 0.253195 2.48755 0.7261 1.79986C1.199 1.11217 1.86939 0.584109 2.64871 0.285415C3.42803 -0.0132796 4.27962 -0.0685517 5.09101 0.126898C5.9024 0.322348 6.63542 0.759325 7.19325 1.38012C7.23254 1.42213 7.28004 1.45562 7.33281 1.47852C7.38557 1.50141 7.44248 1.51323 7.5 1.51323C7.55752 1.51323 7.61443 1.50141 7.66719 1.47852C7.71996 1.45562 7.76746 1.42213 7.80675 1.38012C8.36283 0.75529 9.09602 0.314641 9.90873 0.116816C10.7214 -0.0810083 11.5751 -0.026625 12.3562 0.272728C13.1372 0.57208 13.8085 1.1022 14.2808 1.79254C14.7531 2.48288 15.004 3.30069 15 4.13712C15 5.85461 13.875 7.13711 12.75 8.26211L8.631 12.2469C8.49125 12.4074 8.31895 12.5363 8.12553 12.6251C7.93212 12.7139 7.72203 12.7605 7.50922 12.7618C7.2964 12.7632 7.08574 12.7192 6.89122 12.6329C6.69669 12.5466 6.52277 12.4198 6.381 12.2611L2.25 8.26211C1.125 7.13711 0 5.86211 0 4.13712Z" fill="black"/>
</svg>
