<?xml version="1.0" encoding="utf-8"?>
<!-- Generator: Adobe Illustrator 27.5.0, SVG Export Plug-In . SVG Version: 6.00 Build 0)  -->
<svg version="1.1" id="Layer_1" xmlns="http://www.w3.org/2000/svg" xmlns:xlink="http://www.w3.org/1999/xlink" x="0px" y="0px"
	 viewBox="0 0 1000 1000" style="enable-background:new 0 0 1000 1000;" xml:space="preserve">
<rect style="fill:#FFFFFF;" width="1000" height="1000"/>
<g>
	<g>
		<g>
			<path style="fill:#FFFFFF;" d="M612.106,232.203v535.593c0,7.809-6.362,14.171-14.17,14.171H265.069
				c-5.928,0-11.568-0.868-16.918-2.603c-1.735-0.579-3.615-1.302-5.35-2.025c-0.145,0.145-0.145,0.145-0.145,0
				c-13.882-5.929-24.871-16.918-30.8-30.8c-0.145,0-0.145,0,0-0.145c-0.723-1.735-1.447-3.615-2.025-5.35
				c-1.735-5.35-2.603-10.99-2.603-16.918V265.172c0-26.028,21.112-47.139,47.139-47.139h343.567
				C605.744,218.032,612.106,224.395,612.106,232.203z"/>
			<path d="M597.936,789.197H265.069c-6.658,0-13.097-0.996-19.148-2.958c-0.438-0.148-0.883-0.304-1.334-0.459l-0.092,0.092
				l-9.052-3.94c-12.123-6.256-21.916-16.041-28.171-28.164h-0.247l-3.806-8.939l0.198-0.205c-0.155-0.445-0.304-0.883-0.452-1.32
				c-1.97-6.079-2.965-12.518-2.965-19.176v-458.96c0-29.979,24.387-54.366,54.366-54.366h343.57c11.798,0,21.4,9.602,21.4,21.4
				v535.594C619.336,779.595,609.734,789.197,597.936,789.197z M244.001,770.021l1.567,0.643c1.582,0.657,3.29,1.313,4.872,1.843
				c4.547,1.476,9.489,2.231,14.629,2.231h332.867c3.827,0,6.94-3.114,6.94-6.94V232.203c0-3.827-3.114-6.94-6.94-6.94h-343.57
				c-22.008,0-39.906,17.898-39.906,39.906v458.96c0,5.14,0.755,10.082,2.252,14.686c0.508,1.539,1.172,3.241,1.822,4.815
				l0.741,1.793C224.401,756.303,233.085,764.952,244.001,770.021z"/>
		</g>
		<g>
			<path style="fill:#FFFFFF;" d="M301.219,218.032v506.096H207.23V265.172c0-26.028,21.112-47.139,47.139-47.139H301.219z"/>
			<path d="M308.449,731.358H200v-466.19c0-29.979,24.387-54.366,54.366-54.366h54.083V731.358z M214.46,716.898h79.529V225.262
				h-39.623c-22.008,0-39.906,17.898-39.906,39.906V716.898z"/>
		</g>
		<g>
			<path style="fill:#FFFFFF;" d="M612.106,676.989v90.808c0,7.809-6.362,14.171-14.17,14.171H265.069
				c-5.928,0-11.568-0.868-16.918-2.603c-1.735-0.579-3.615-1.302-5.35-2.025c-0.145,0.145-0.145,0.145-0.145,0
				c-13.882-5.784-25.016-16.918-30.8-30.8c-0.145,0-0.145,0,0-0.145c-0.723-1.735-1.447-3.615-2.025-5.35
				c-1.735-5.35-2.603-10.99-2.603-16.918v-0.434c0.145-15.761,6.652-30.076,16.918-40.487
				c10.556-10.411,25.016-16.918,40.922-16.918h336.337C607.334,666.289,612.106,671.06,612.106,676.989z"/>
			<path d="M597.936,789.197H265.069c-6.658,0-13.097-0.996-19.148-2.958c-0.438-0.148-0.883-0.304-1.334-0.459l-0.092,0.092
				l-9.052-3.911c-12.073-6.171-22.036-16.133-28.2-28.193h-0.219l-3.806-8.939l0.198-0.205c-0.155-0.445-0.304-0.883-0.452-1.32
				c-1.97-6.079-2.965-12.518-2.965-19.176c0.155-17.567,6.898-33.728,19-45.999c12.497-12.321,28.835-19.07,46.07-19.07h336.333
				c9.892,0,17.934,8.042,17.934,17.934v90.805C619.336,779.595,609.734,789.197,597.936,789.197z M243.704,769.901l1.864,0.763
				c1.582,0.657,3.29,1.313,4.872,1.843c4.547,1.476,9.489,2.231,14.629,2.231h332.867c3.827,0,6.94-3.114,6.94-6.94v-90.805
				c0-1.949-1.525-3.474-3.474-3.474H265.069c-13.415,0-26.145,5.267-35.846,14.834c-9.376,9.51-14.643,22.113-14.763,35.401
				c0,5.514,0.755,10.457,2.252,15.06c0.508,1.539,1.172,3.241,1.822,4.815l0.89,2.153
				C224.401,756.345,233.092,764.987,243.704,769.901z"/>
		</g>
	</g>
	<g>
		<g>
			<circle style="fill:#FFFFFF;" cx="566.232" cy="490.275" r="114.055"/>
			<path d="M566.234,611.563c-32.394,0-62.852-12.617-85.764-35.528c-22.911-22.904-35.528-53.363-35.528-85.757
				s12.617-62.852,35.528-85.764c22.911-22.911,53.37-35.528,85.764-35.528c32.393,0,62.852,12.617,85.757,35.528l0,0l0,0
				c22.911,22.911,35.528,53.37,35.528,85.764s-12.617,62.852-35.528,85.757C629.087,598.946,598.628,611.563,566.234,611.563z
				 M566.234,383.446c-28.531,0-55.361,11.113-75.54,31.292s-31.292,47.009-31.292,75.54c0,28.531,11.113,55.354,31.292,75.533
				c20.179,20.179,47.009,31.292,75.54,31.292c28.531,0,55.354-11.113,75.533-31.292c20.179-20.179,31.292-47.002,31.292-75.533
				c0-28.531-11.113-55.361-31.292-75.54l0,0C621.589,394.559,594.766,383.446,566.234,383.446z"/>
		</g>
		<g>
			<circle style="fill:#FFFFFF;" cx="566.232" cy="490.275" r="81.468"/>
			<path d="M566.234,578.936c-22.714,0-45.427-8.649-62.718-25.94c-34.582-34.582-34.582-90.854,0-125.437s90.854-34.582,125.437,0
				s34.582,90.854,0,125.437C611.662,570.287,588.948,578.936,566.234,578.936z M566.234,416.072
				c-19.014,0-38.021,7.237-52.495,21.711c-28.948,28.948-28.948,76.041,0,104.989c28.948,28.948,76.041,28.948,104.989,0
				s28.948-76.041,0-104.989C604.255,423.309,585.248,416.072,566.234,416.072z"/>
		</g>
		<g>
			
				<rect x="651.38" y="564.561" transform="matrix(0.7071 -0.7071 0.7071 0.7071 -220.6003 639.9952)" style="fill:#FFFFFF;" width="21.725" height="43.45"/>
			<path d="M669.925,619.555l-40.951-40.951l25.587-25.587l40.951,40.951L669.925,619.555z M649.421,578.604l20.504,20.504
				l5.14-5.14l-20.504-20.504L649.421,578.604z"/>
		</g>
		<g>
			<path style="fill:#FFFFFF;" d="M690.188,589.064l-25.167,25.167c-3.655,3.655-3.655,9.582,0,13.237l86.614,86.614
				c3.655,3.655,9.582,3.655,13.237,0l25.167-25.167c3.655-3.655,3.655-9.582,0-13.237l-86.614-86.614
				C699.77,585.409,693.843,585.409,690.188,589.064z"/>
			<path d="M758.251,724.043c-4.243,0-8.494-1.617-11.727-4.851l-86.618-86.611c-6.46-6.467-6.46-16.995-0.007-23.455l25.185-25.185
				c6.467-6.446,16.98-6.46,23.448,0l86.618,86.625c6.467,6.467,6.467,16.995,0,23.462l-25.164,25.164
				C766.752,722.426,762.502,724.043,758.251,724.043z M695.293,594.18l-25.164,25.164c-0.826,0.826-0.826,2.189,0.007,3.022
				l86.611,86.604c0.826,0.826,2.175,0.84,3.015,0l25.164-25.164c0.833-0.833,0.833-2.182,0-3.015l-86.611-86.618
				C697.475,593.347,696.133,593.354,695.293,594.18z"/>
		</g>
	</g>
	<g>
		<path d="M612.106,731.513H289.372c-3.996,0-7.23-3.234-7.23-7.23c0-3.996,3.234-7.23,7.23-7.23h322.735
			c3.996,0,7.23,3.234,7.23,7.23C619.336,728.28,616.103,731.513,612.106,731.513z"/>
	</g>
	<g>
		<polygon style="fill:#FFFFFF;" points="340.743,218.032 340.743,339.403 382.225,296.895 424.734,339.403 424.734,218.032 		"/>
		<path d="M340.744,346.632c-0.918,0-1.843-0.177-2.725-0.537c-2.725-1.108-4.505-3.756-4.505-6.693v-121.37
			c0-3.996,3.234-7.23,7.23-7.23h83.992c3.996,0,7.23,3.234,7.23,7.23v121.37c0,2.923-1.758,5.564-4.462,6.679
			c-2.69,1.144-5.804,0.508-7.879-1.567l-37.336-37.329l-36.369,37.265C344.528,345.877,342.65,346.632,340.744,346.632z
			 M382.224,289.668c1.913,0,3.756,0.763,5.112,2.118l30.169,30.162v-96.686h-69.532v96.383l29.075-29.795
			c1.349-1.384,3.198-2.168,5.133-2.182C382.196,289.668,382.21,289.668,382.224,289.668z"/>
	</g>
</g>
</svg>
